<svg width="126" height="22" viewBox="0 0 126 22" fill="none" xmlns="http://www.w3.org/2000/svg">
<path d="M62.7031 1C62.4421 1.05821 62.1881 1.14427 61.9456 1.25666C57.7126 3.22337 55 8.72317 55 13.435C55 17.9134 58.3819 21.5934 62.7031 22V1ZM64.2969 22C68.6181 21.5934 72 17.9145 72 13.4361C72 13.0065 71.9777 12.5721 71.9331 12.1327L64.2969 19.7249V22ZM70.1513 6.38361C69.7436 5.62382 69.267 4.90259 68.7275 4.2289L64.2969 8.63339V12.2034L70.1513 6.38361ZM67.6522 3.05648C66.8905 2.32018 66.013 1.71226 65.0544 1.25666C64.8119 1.14427 64.5579 1.05821 64.2969 1V6.39312L67.6522 3.05648ZM70.8695 7.90881L64.2969 14.4437V17.4836L71.4688 10.354L71.609 10.2146C71.422 9.42836 71.1748 8.65753 70.8695 7.90881Z" fill="black"/>
<path d="M17.344 0.495998V22H15.168V10.672C15.168 8.47467 15.232 6.352 15.36 4.304L10.976 16.272H8.576L4.128 4.304C4.27733 6.288 4.352 8.4 4.352 10.64V22H2.208V0.495998H4.896L9.76 13.968L14.624 0.495998H17.344ZM22.4105 0.495998H31.7225V2.512H24.6825V10.16H30.8265V12.176H24.6825V19.984H31.7225V22H22.4105V0.495998ZM50.9053 0.495998V22H48.7292V10.672C48.7292 8.47467 48.7932 6.352 48.9212 4.304L44.5372 16.272H42.1372L37.6892 4.304C37.8386 6.288 37.9132 8.4 37.9132 10.64V22H35.7692V0.495998H38.4572L43.3212 13.968L48.1852 0.495998H50.9053ZM76.0792 0.495998H78.3512V20.016H84.8792V22H76.0792V0.495998ZM87.8755 0.495998H97.1875V2.512H90.1475V10.16H96.2915V12.176H90.1475V19.984H97.1875V22H87.8755V0.495998ZM110.226 22L108.914 15.984H103.154L101.842 22H99.5703L104.434 0.495998H107.634L112.498 22H110.226ZM103.57 14H108.466L106.002 2.704L103.57 14ZM115.906 0.495998H124.962V2.512H118.178V10.576H124.61V12.624H118.178V22H115.906V0.495998Z" fill="black"/>
</svg>
